<svg xmlns="http://www.w3.org/2000/svg" width="24" height="24" viewBox="0 0 24 24">
    <g fill="none" fill-rule="evenodd">
        <g stroke="#383838">
            <path d="M17.957 22.57H2.224a.745.745 0 0 1-.745-.744V6.084c0-.41.333-.744.745-.744h15.733c.412 0 .745.333.745.744v15.742a.745.745 0 0 1-.745.745z"/>
            <path d="M3.41 4.154c0-.411.333-.745.744-.745h15.734c.411 0 .745.334.745.745v15.742a.745.745 0 0 1-.745.744"/>
            <path d="M5.34 2.224c0-.411.333-.745.744-.745h15.734c.411 0 .745.334.745.745v15.741a.745.745 0 0 1-.728.745"/>
        </g>
        <path fill="#383838" fill-rule="nonzero" d="M6.69 15.139H4.607l-.469 1.299h-.676l1.9-4.977h.574l1.904 4.976h-.673L6.69 15.14zm-1.886-.54h1.692l-.848-2.328-.844 2.328zm4.388-.11v1.948h-.656v-4.976h1.835c.545 0 .971.139 1.28.417.309.278.463.646.463 1.104 0 .483-.15.855-.453 1.116-.302.26-.734.391-1.297.391H9.192zm0-.536h1.18c.35 0 .619-.083.806-.248.187-.165.28-.404.28-.716 0-.296-.093-.533-.28-.711-.187-.178-.443-.27-.77-.277H9.193v1.952zm4.443.536v1.948h-.657v-4.976h1.836c.544 0 .971.139 1.28.417.309.278.463.646.463 1.104 0 .483-.151.855-.453 1.116-.302.26-.734.391-1.297.391h-1.172zm0-.536h1.179c.35 0 .62-.083.806-.248.187-.165.28-.404.28-.716 0-.296-.093-.533-.28-.711-.186-.178-.443-.27-.769-.277h-1.216v1.952z"/>
    </g>
</svg>
