<svg xmlns="http://www.w3.org/2000/svg" width="24" height="24" viewBox="0 0 24 24">
    <g fill="none" fill-rule="evenodd" stroke="#383838">
        <path stroke-width="1.356" d="M13.652 19.169c-.85 0-1.54-.691-1.54-1.54 0-.85.69-1.54 1.54-1.54a1.541 1.541 0 0 1 0 3.08z"/>
        <path d="M14.322 23.149h-1.341a.2.2 0 0 1-.199-.2v-1.2a4.172 4.172 0 0 1-1.43-.588l-.845.846a.2.2 0 0 1-.283 0l-.948-.948a.2.2 0 0 1 0-.282l.846-.846a4.154 4.154 0 0 1-.59-1.431h-1.2a.2.2 0 0 1-.2-.2V16.96a.2.2 0 0 1 .2-.199h1.2c.107-.516.304-.995.589-1.43l-.846-.848a.198.198 0 0 1 0-.281l.948-.949a.201.201 0 0 1 .282 0l.846.847a4.17 4.17 0 0 1 1.431-.59v-1.2c0-.11.09-.2.199-.2h1.341a.2.2 0 0 1 .199.2v1.2c.516.109.996.305 1.431.592l.848-.849a.201.201 0 0 1 .282 0l.948.949a.198.198 0 0 1 0 .281l-.847.85c.283.435.48.913.587 1.428h1.203c.11 0 .2.09.2.199V18.3a.2.2 0 0 1-.2.2H17.77a4.132 4.132 0 0 1-.59 1.429l.849.848a.2.2 0 0 1 0 .282l-.948.948a.208.208 0 0 1-.283 0l-.847-.848a4.17 4.17 0 0 1-1.43.59v1.2c0 .11-.088.2-.199.2z"/>
        <path stroke-linecap="round" d="M7.552 23.366H2.233a.774.774 0 0 1-.774-.774V6.243c0-.427.347-.774.774-.774h16.341c.427 0 .774.347.774.774v5.475"/>
        <path d="M3.465 4.238c0-.427.346-.773.773-.773H20.58c.427 0 .773.346.773.773v16.35a.773.773 0 0 1-.773.773"/>
        <path d="M5.47 2.233c0-.427.345-.773.773-.773h16.341c.427 0 .773.346.773.773v16.35a.773.773 0 0 1-.754.773"/>
    </g>
</svg>
