<svg xmlns="http://www.w3.org/2000/svg" width="25" height="24" viewBox="0 0 25 24">
    <g fill="none" fill-rule="evenodd">
        <g stroke="#383838">
            <path d="M18.695 22.509H2.278a.777.777 0 0 1-.778-.777V5.306c0-.43.348-.777.778-.777h16.417c.429 0 .777.348.777.777V21.73a.777.777 0 0 1-.777.777z"/>
            <path d="M3.514 3.291c0-.429.348-.777.777-.777H20.71c.43 0 .777.348.777.777v16.426a.777.777 0 0 1-.777.777"/>
            <path d="M5.528 1.277c0-.429.348-.777.777-.777h16.418c.43 0 .777.348.777.777v16.426a.777.777 0 0 1-.759.777"/>
        </g>
        <path fill="#383838" fill-rule="nonzero" d="M6.938 14.753H4.762l-.488 1.356h-.706l1.983-5.193h.599l1.986 5.193h-.702l-.496-1.356zm-1.969-.563h1.766L5.85 11.76l-.88 2.429zm4.579-.114v2.033h-.685v-5.193h1.916c.568 0 1.013.145 1.335.435.322.29.483.674.483 1.152 0 .504-.157.892-.472 1.164-.315.273-.766.409-1.354.409H9.548zm0-.56h1.23c.367 0 .647-.086.842-.259.195-.172.293-.421.293-.747 0-.31-.098-.556-.293-.742-.195-.185-.462-.282-.802-.289h-1.27v2.037zm4.636.56v2.033h-.685v-5.193h1.915c.569 0 1.014.145 1.336.435.322.29.483.674.483 1.152 0 .504-.157.892-.472 1.164-.315.273-.766.409-1.354.409h-1.223zm0-.56h1.23c.367 0 .647-.086.842-.259.195-.172.293-.421.293-.747 0-.31-.098-.556-.293-.742-.195-.185-.462-.282-.802-.289h-1.27v2.037z"/>
    </g>
</svg>
