<svg xmlns="http://www.w3.org/2000/svg" width="24" height="26" viewBox="0 0 24 26">
    <g fill="none" fill-rule="evenodd" stroke="#383838" stroke-linecap="round">
        <path d="M22.804 20.2c0 2.64-4.872 4.8-10.883 4.8-6.01 0-10.882-2.16-10.882-4.8V5.8C1.04 3.16 5.911 1 11.921 1c6.011 0 10.883 2.16 10.883 4.8v14.4z"/>
        <path d="M22.804 10.6c0 2.64-4.872 4.8-10.883 4.8-6.01 0-10.882-2.16-10.882-4.8"/>
        <path d="M22.804 5.8c0 2.64-4.872 4.8-10.883 4.8-6.01 0-10.882-2.16-10.882-4.8M4.064 11.52c-.589-.28-1.1-.6-1.571-.92M4.064 16.32c-.589-.28-1.1-.6-1.571-.92M4.064 21.12c-.589-.28-1.1-.6-1.571-.92"/>
        <path d="M22.804 15.4c0 2.64-4.872 4.8-10.883 4.8-6.01 0-10.882-2.16-10.882-4.8"/>
    </g>
</svg>
