<svg xmlns="http://www.w3.org/2000/svg" xmlns:xlink="http://www.w3.org/1999/xlink" width="24" height="24" viewBox="0 0 24 24">
    <defs>
        <path id="a" d="M0 24h24V0H0z"/>
    </defs>
    <g fill="none" fill-rule="evenodd">
        <path stroke="#383838" d="M3.327 12.054h15.556c.417 0 .753.337.753.753v3.23a.752.752 0 0 1-.753.752H3.327a.753.753 0 0 1-.753-.753v-3.229c0-.416.337-.753.753-.753zM9.698 10.254h2.712M14.065 10.277h5.57"/>
        <mask id="b" fill="#fff">
            <use xlink:href="#a"/>
        </mask>
        <path stroke="#383838" d="M7.124 10.484h.458v-.459h-.458zM7.608 14.421h2.712M11.974 14.445h5.572M5.033 14.65h.459v-.457h-.459z" mask="url(#b)"/>
        <path stroke="#383838" d="M4.713 11.934V8.662c0-.217.175-.393.392-.393h16.168c.217 0 .393.176.393.393v4.178a.393.393 0 0 1-.393.393h-1.637" mask="url(#b)"/>
        <path stroke="#383838" stroke-dasharray="1.963,1.963" d="M1.505.545h20.99c.53 0 .96.43.96.96v20.99a.96.96 0 0 1-.96.96H1.504a.96.96 0 0 1-.96-.96V1.505c0-.53.43-.96.96-.96z" mask="url(#b)"/>
    </g>
</svg>
