<svg xmlns="http://www.w3.org/2000/svg" width="26" height="23" viewBox="0 0 26 23">
    <g fill="none" fill-rule="evenodd" stroke="#383838" stroke-linecap="round">
        <path d="M6.412 7.018l4.548-4.522a.659.659 0 0 1 .93.001l9.041 9.042a.66.66 0 0 1 0 .93l-9.04 9.042a.66.66 0 0 1-.931.001l-4.497-4.484"/>
        <path d="M12.712 3.306l1.676-1.667a.659.659 0 0 1 .93 0l9.042 9.042a.66.66 0 0 1 0 .932l-9.04 9.041a.66.66 0 0 1-.932.001l-.746-.814M3.255 8.894a.903.903 0 1 1-1.807 0 .903.903 0 0 1 1.807 0zM9.172 11.92a.905.905 0 1 1-1.81 0 .905.905 0 0 1 1.81 0zM5.13 14.947a.904.904 0 1 1-1.808 0 .904.904 0 0 1 1.808 0zM3.255 8.894h7.736M9.172 11.92h4.47M5.188 14.947h5.81"/>
    </g>
</svg>
