<svg xmlns="http://www.w3.org/2000/svg" width="17" height="24" viewBox="0 0 17 24">
    <g fill="none" fill-rule="evenodd">
        <path fill="#383838" fill-rule="nonzero" d="M4.36 9.53l.785-2.434h.553l-1.136 3.17h-.414L3 7.096h.554l.805 2.434zm3.748.736h-.562V6h.562v4.266zm2.791-1.67v1.67h-.562V6h1.573c.467 0 .832.12 1.097.357.265.239.397.554.397.947 0 .414-.13.733-.388.956-.26.224-.63.336-1.112.336h-1.005zm0-.46h1.01c.302 0 .532-.071.692-.213.16-.141.24-.346.24-.613 0-.254-.08-.457-.24-.61-.16-.152-.38-.231-.659-.237h-1.043v1.673z"/>
        <path stroke="#383838" stroke-dasharray="2.047,2.047" d="M3.273.545h10.232a2.727 2.727 0 0 1 2.728 2.728v10.243a2.727 2.727 0 0 1-2.728 2.728H3.273a2.727 2.727 0 0 1-2.728-2.728V3.273A2.727 2.727 0 0 1 3.273.545z"/>
        <path stroke="#383838" d="M8.345 17.27v3.152"/>
        <path stroke="#383838" stroke-linejoin="round" d="M.283 22.112h4.8M16.299 22.112H11.53"/>
        <path stroke="#383838" d="M8.28 20.77a1.341 1.341 0 1 1 0 2.684 1.341 1.341 0 0 1 0-2.683z"/>
    </g>
</svg>
