<svg xmlns="http://www.w3.org/2000/svg" width="24" height="24" viewBox="0 0 24 24">
    <g fill="none" fill-rule="evenodd" stroke="#383838">
        <path stroke-dasharray="2,2" d="M6.313 6.021L11.62.745a.769.769 0 0 1 1.085.002l10.548 10.548c.3.3.3.787 0 1.086L12.706 22.93c-.3.3-.786.3-1.086 0L6.374 17.7"/>
        <path stroke-linecap="round" d="M2.63 8.21a1.054 1.054 0 1 1-2.107 0 1.054 1.054 0 0 1 2.108 0zM9.534 11.74a1.055 1.055 0 1 1-2.111 0 1.055 1.055 0 0 1 2.11 0zM4.819 15.272a1.055 1.055 0 1 1-2.11 0 1.055 1.055 0 0 1 2.11 0zM2.63 8.21h9.026M9.534 11.74h5.215M4.886 15.272h6.778"/>
    </g>
</svg>
